# xmcd CD database file
# Copyright (C) 1993-1998 Ti Kan
# 
# Track frame offsets:
#     150
#     12772
#     30270
#     46944
#     62248
#     79384
#     96230
#     107528
#     127096
#     144938
# 
# Disc length: 2111 seconds
# 
# Revision: 1
# Processed by: cddbd v1.4b41PL1 Copyright (c) Steve Scherf et al.
# Submitted via: DiscPlay 4.0.4
# 
DISCID=7b083d0a
DTITLE=Kate - teisel pool
DYEAR=1900
DGENRE=
TTITLE0=Varjatud valgus
TTITLE1=Omad v  rad
TTITLE2=Kuule mees
TTITLE3=Sinu jaoks
TTITLE4=Justkui oleksis liiv
TTITLE5=nne tipul
TTITLE6=Saatan
TTITLE7=Teisel pool
TTITLE8=Siis kui    on k es
TTITLE9=Perpetuum mobile
EXTD=
EXTT0=
EXTT1=
EXTT2=
EXTT3=
EXTT4=
EXTT5=
EXTT6=
EXTT7=
EXTT8=
EXTT9=
PLAYORDER=
